# xmcd
#
# Track frame offsets:
#	150
#	18102
#	36570
#	51477
#	72882
#	92777
#	111142
#	125342
#	139057
#	159155
#
# Disc length: 2278 seconds
#
# Revision: 1
# Processed by: cddbd v1.4PL0 Copyright (c) Steve Scherf et al.
# Submitted via: audiograbber 1.81.03
#
DISCID=8408e40a
DTITLE=Madison County - Diamond in the Rough
DYEAR=1900
DGENRE=Country
TTITLE0=When You Arrived
TTITLE1=Ready or Not (Here I Go)
TTITLE2=Diamond in the Rough
TTITLE3=Amen
TTITLE4=Light at the End of the Tunnel
TTITLE5=This Ol' Cowboy
TTITLE6=When I Walk Through the Door
TTITLE7=A Trucker's Wish
TTITLE8=Broken Inn
TTITLE9=Say Goodbye
EXTD=
EXTT0=
EXTT1=
EXTT2=
EXTT3=
EXTT4=
EXTT5=
EXTT6=
EXTT7=
EXTT8=
EXTT9=
PLAYORDER=
